<?xml version="1.0" standalone="no"?>
<!DOCTYPE svg PUBLIC "-//W3C//DTD SVG 20010904//EN"
 "http://www.w3.org/TR/2001/REC-SVG-20010904/DTD/svg10.dtd">
<svg version="1.0" xmlns="http://www.w3.org/2000/svg"
 width="1920.000000pt" height="1080.000000pt" viewBox="0 0 1920.000000 1080.000000"
 preserveAspectRatio="xMidYMid meet">

<g transform="translate(0.000000,1080.000000) scale(0.100000,-0.100000)"
fill="#000000" stroke="none">
<path d="M2095 8252 c-6 -5 -43 -14 -83 -20 -77 -13 -167 -40 -217 -66 -16 -9
-38 -16 -47 -16 -9 0 -19 -4 -22 -9 -3 -5 -37 -18 -74 -30 -60 -18 -76 -29
-130 -85 -34 -35 -62 -71 -62 -79 0 -7 -9 -22 -21 -33 -12 -10 -30 -36 -41
-57 -10 -21 -27 -41 -36 -44 -70 -27 -282 -222 -282 -260 0 -8 -11 -41 -24
-72 -13 -31 -29 -87 -36 -126 -7 -38 -16 -79 -21 -90 -17 -43 -39 -132 -44
-175 -3 -25 -10 -88 -17 -140 -7 -58 -11 -219 -10 -410 1 -173 1 -409 0 -525
-2 -431 -2 -448 24 -491 16 -28 18 -37 8 -49 -18 -22 -22 -689 -4 -713 11 -14
13 -5 14 65 0 45 4 84 9 87 22 14 37 -106 21 -172 -9 -42 -9 -54 3 -74 17 -28
23 -108 8 -108 -6 0 -11 11 -11 24 0 14 -4 28 -10 31 -5 3 -10 1 -10 -4 0 -6
-7 -11 -15 -11 -9 0 -15 -9 -16 -22 0 -13 -4 -57 -8 -98 -4 -41 -4 -85 0 -96
4 -13 3 -26 -3 -32 -8 -8 -8 -22 0 -49 7 -24 9 -86 6 -168 -2 -71 -7 -276 -10
-455 -3 -179 -7 -331 -9 -337 -3 -10 -105 -13 -465 -13 l-460 0 0 -760 0 -760
464 0 c300 0 467 -4 471 -10 3 -6 9 -326 12 -713 3 -386 9 -706 13 -711 5 -4
6 -33 3 -63 -4 -40 -2 -57 7 -63 10 -6 13 -37 12 -123 -2 -108 0 -115 19 -120
25 -7 26 -3 34 103 4 46 12 92 19 102 11 15 14 9 25 -47 8 -38 10 -84 7 -110
-6 -34 -4 -45 6 -46 122 -7 326 -7 337 0 10 6 10 13 3 28 -34 63 -86 374 -97
578 -4 66 -9 138 -11 160 -2 22 -6 218 -9 435 -4 393 5 577 29 592 13 9 1020
11 1062 2 l29 -6 0 -296 c0 -215 -4 -303 -13 -319 -6 -12 -12 -51 -12 -86 0
-51 -4 -66 -16 -71 -13 -5 -15 -14 -9 -44 17 -85 14 -125 -12 -159 -25 -33
-30 -93 -10 -120 5 -7 7 -20 3 -28 -4 -12 5 -15 47 -17 66 -2 145 1 176 8 l23
5 -7 177 c-3 97 -13 210 -21 249 -42 215 -37 346 19 453 20 36 38 83 42 102
l7 36 -56 12 c-66 14 -94 35 -98 75 l-3 30 1775 0 1775 0 12 -115 c6 -63 12
-148 12 -187 1 -40 4 -73 9 -74 4 0 45 -2 92 -4 47 -2 121 -11 165 -19 105
-21 108 -21 95 4 -13 24 -1 50 41 95 37 39 125 168 257 375 44 69 162 301 162
319 0 5 16 43 35 83 45 96 109 251 149 363 18 50 38 100 45 113 7 13 10 30 7
38 -3 8 -2 13 2 10 9 -6 52 76 52 99 0 8 5 15 10 15 6 0 10 5 10 11 0 28 96
197 134 235 24 25 165 94 193 95 11 0 13 3 5 6 -15 6 -142 -37 -142 -49 0 -4
-6 -5 -14 -2 -17 7 -86 -22 -86 -35 0 -6 4 -11 9 -11 5 0 3 -13 -5 -30 -9 -17
-20 -27 -28 -24 -9 4 -16 -7 -21 -33 -9 -48 -33 -95 -45 -88 -6 4 -11 -1 -11
-9 -1 -9 -3 -20 -4 -26 -1 -5 -3 -14 -4 -20 0 -5 -10 -10 -21 -10 -11 0 -20
-4 -20 -9 0 -5 -6 -16 -12 -23 -14 -14 -38 -63 -58 -115 -7 -19 -17 -30 -23
-26 -7 4 -8 0 -4 -11 7 -18 -3 -44 -26 -68 -7 -7 -25 -35 -41 -63 -16 -27 -39
-61 -51 -75 -13 -14 -35 -48 -49 -76 -15 -28 -38 -61 -51 -74 -14 -13 -25 -29
-25 -37 0 -7 -4 -13 -10 -13 -5 0 -10 -7 -10 -15 0 -9 -7 -18 -15 -21 -13 -6
-45 -57 -45 -75 0 -8 -58 -69 -66 -69 -2 0 -13 -9 -25 -21 -14 -14 -29 -19
-45 -16 -13 2 -25 -1 -28 -7 -2 -6 -5 179 -5 412 -1 290 2 430 10 444 8 15 8
19 0 14 -8 -5 -11 43 -11 168 l0 176 -141 0 c-77 0 -148 4 -158 10 -12 6 -21
26 -25 53 -4 25 -13 53 -21 63 -8 11 -15 27 -15 37 0 10 -7 34 -16 55 -16 36
-17 37 -24 12 -5 -14 -9 -54 -9 -90 -1 -36 -4 -82 -7 -103 l-7 -37 -1956 2
-1956 3 -89 38 c-93 40 -181 92 -205 120 -12 15 -10 17 20 17 44 0 122 24 164
50 18 11 41 20 51 20 11 0 35 9 54 20 19 11 76 40 125 64 73 36 103 57 158
116 75 79 81 91 91 166 8 58 -5 98 -58 179 -18 28 -46 72 -60 98 -17 29 -52
67 -89 95 -76 57 -117 97 -117 111 0 7 25 11 63 11 35 0 86 6 113 14 48 13
144 33 274 56 36 7 68 14 72 16 11 7 69 134 75 166 3 15 14 35 24 44 18 16 23
16 90 -1 69 -16 72 -16 89 2 23 23 25 40 16 138 -9 95 -49 189 -105 250 -74
79 -141 191 -127 214 4 6 86 6 311 1 111 -3 188 8 205 29 24 30 67 42 180 48
l120 6 40 -32 c29 -23 46 -30 64 -25 17 4 31 -1 49 -16 21 -19 24 -30 26 -98
4 -174 31 -284 98 -414 38 -72 56 -95 112 -139 36 -29 81 -68 100 -86 35 -34
51 -41 51 -23 0 10 -51 63 -153 158 -42 40 -58 62 -63 90 -3 20 -12 60 -20 88
-18 64 -21 224 -6 329 7 44 15 118 19 164 6 58 12 86 22 89 11 4 12 -3 7 -29
-8 -41 -8 -43 -2 -94 3 -22 8 -74 12 -115 6 -61 12 -80 33 -101 14 -15 36 -44
48 -65 33 -58 103 -202 103 -213 0 -5 7 -26 17 -47 17 -42 15 -43 38 23 4 12
20 28 36 35 16 7 29 16 29 21 0 20 56 -11 108 -59 63 -59 139 -94 188 -87 19
3 46 -3 70 -15 75 -38 217 -75 304 -80 70 -3 106 1 195 23 270 65 306 80 380
155 32 33 55 63 51 67 -4 5 -16 -2 -26 -14 -28 -35 -111 -96 -150 -110 -19 -6
-50 -12 -69 -13 -19 0 -61 -5 -93 -12 -51 -11 -74 -9 -184 11 -130 24 -252 60
-339 102 l-50 24 -1 105 c0 93 -9 152 -28 200 -13 32 7 40 58 25 65 -20 226
-19 323 1 41 8 81 13 88 10 17 -6 91 16 107 32 9 9 2 12 -34 12 -26 0 -49 4
-52 9 -12 19 144 42 312 46 68 1 125 5 128 7 2 3 -19 16 -48 28 -50 21 -61 22
-191 16 -76 -4 -145 -9 -155 -12 -14 -5 -14 -4 -3 4 12 9 9 12 -15 17 -16 4
-42 11 -59 17 -16 5 -93 14 -170 18 -82 5 -175 17 -225 30 -129 32 -301 81
-340 97 -37 14 -151 129 -176 175 -7 15 -18 79 -23 146 -5 65 -13 127 -19 138
-5 10 -19 48 -31 83 -12 35 -34 85 -50 110 -37 58 -84 177 -117 301 -15 52
-30 100 -34 105 -4 6 -13 28 -20 50 -7 22 -16 44 -21 50 -5 5 -9 17 -9 26 0 9
-14 43 -31 75 -17 33 -40 84 -51 114 -24 64 -91 165 -198 300 -87 110 -107
138 -136 200 -44 93 -188 244 -334 349 -52 38 -106 81 -119 95 -14 14 -30 26
-36 26 -6 0 -29 13 -51 30 -21 16 -45 30 -53 30 -8 0 -11 3 -8 6 4 4 -15 18
-41 32 -26 14 -72 41 -102 61 -69 46 -198 108 -275 133 -125 40 -343 63 -370
40z m398 -316 c94 -31 121 -45 175 -92 54 -46 189 -128 226 -138 42 -10 42
-32 0 -81 -118 -138 -128 -160 -138 -314 -4 -53 -1 -84 10 -110 15 -36 51 -81
65 -81 4 0 6 42 3 94 l-4 94 40 53 c22 29 40 57 40 62 0 24 86 150 112 163 33
17 43 13 64 -27 18 -36 11 -66 -22 -92 -13 -10 -33 -32 -46 -49 -20 -29 -21
-31 -2 -24 64 26 70 16 22 -36 -64 -69 -98 -110 -98 -119 0 -5 -4 -9 -10 -9
-15 0 -12 38 6 76 20 42 16 48 -13 24 -17 -14 -24 -34 -31 -90 -8 -68 -7 -74
14 -97 13 -14 25 -30 27 -36 3 -9 9 -9 23 1 11 6 29 16 42 22 12 5 22 14 22
19 0 5 9 13 20 16 11 3 26 12 33 20 8 7 23 15 33 17 24 4 36 12 91 66 44 42
73 54 73 28 0 -7 6 -19 14 -25 11 -10 16 -8 21 8 3 12 17 24 30 27 26 6 88
-10 120 -33 35 -23 203 -214 219 -247 8 -17 19 -68 25 -112 5 -44 17 -94 25
-110 24 -45 42 -91 72 -184 15 -47 34 -96 43 -110 37 -56 69 -140 81 -215 4
-27 17 -81 29 -120 27 -89 28 -188 2 -255 -20 -52 -84 -140 -102 -140 -6 0
-25 -11 -43 -25 -18 -14 -37 -25 -42 -25 -5 0 -29 -14 -53 -30 -45 -31 -170
-74 -248 -86 -24 -4 -41 -10 -38 -13 12 -21 -57 -55 -147 -71 -64 -12 -214 -7
-313 11 -98 18 -111 21 -150 38 -22 9 -58 18 -79 19 -39 3 -104 20 -179 48
-55 21 -115 60 -174 115 -28 27 -59 49 -67 49 -9 0 -16 6 -16 13 0 8 -11 19
-25 25 -14 7 -28 19 -31 27 -4 8 -13 15 -20 15 -8 0 -17 6 -20 14 -5 13 -85
50 -111 51 -11 0 -63 37 -143 103 -16 12 -35 43 -44 69 -9 25 -22 53 -30 62
-28 31 -85 158 -106 236 -69 248 -104 366 -126 415 -14 30 -32 87 -40 125 -9
39 -22 97 -30 130 -27 110 -34 208 -19 280 28 131 183 336 300 397 54 28 83
63 77 94 -4 22 -1 24 36 24 22 0 53 5 69 12 15 6 69 24 118 40 78 24 102 27
177 23 53 -3 115 -14 161 -29z m-683 -61 c-7 -8 -16 -15 -21 -15 -5 0 -9 7 -9
15 0 9 9 15 21 15 18 0 19 -2 9 -15z m103 -2 c-7 -2 -19 -2 -25 0 -7 3 -2 5
12 5 14 0 19 -2 13 -5z m1242 -577 c0 -38 -19 -44 -40 -12 -20 30 -12 48 18
44 17 -2 22 -10 22 -32z m-115 -40 c0 -16 -18 -31 -27 -22 -8 8 5 36 17 36 5
0 10 -6 10 -14z m-855 -1436 c21 -23 28 -50 14 -50 -5 0 -9 4 -9 9 0 5 -9 11
-19 14 -10 2 -24 14 -30 26 -10 18 -9 21 7 21 10 0 27 -9 37 -20z m-142 -31
c12 -7 45 -27 73 -46 l52 -33 7 -76 c6 -65 4 -78 -11 -96 -33 -35 -80 -49
-129 -37 -70 18 -80 36 -101 187 l-7 42 52 0 c44 0 51 3 51 19 0 11 -4 23 -10
26 -11 7 -14 25 -4 25 3 0 15 -5 27 -11z m2025 -254 c5 -55 7 -104 4 -109 -9
-16 -21 19 -21 59 1 22 -4 60 -9 84 -6 24 -8 60 -4 80 5 34 6 35 13 11 5 -14
12 -70 17 -125z m-2614 -247 c3 -13 6 -61 5 -108 0 -80 -1 -84 -14 -58 -15 26
-21 90 -15 156 4 37 15 42 24 10z m63 -20 c-3 -7 -5 -2 -5 12 0 14 2 19 5 13
2 -7 2 -19 0 -25z m-5 -120 c-9 -9 -12 -7 -12 12 0 19 3 21 12 12 9 -9 9 -15
0 -24z m-22 -243 c5 -66 5 -126 0 -134 -13 -23 -20 30 -24 179 -5 166 11 136
24 -45z m3330 -85 c86 -36 141 -53 214 -64 53 -8 100 -17 103 -20 16 -15 -17
-21 -120 -20 -106 0 -118 2 -230 44 -121 44 -150 66 -125 95 20 22 32 19 158
-35z m-3349 -549 c-11 -37 -23 -85 -26 -108 -4 -27 -12 -43 -21 -43 -20 0 -18
67 5 165 28 116 39 195 48 325 l8 115 3 -194 c2 -170 0 -203 -17 -260z m-283
320 c10 -29 1 -94 -10 -76 -3 6 -9 31 -13 58 -8 53 7 65 23 18z m-167 -58 c0
-5 2 -23 3 -40 2 -18 0 -33 -5 -33 -5 0 -9 4 -9 9 0 5 -3 23 -6 40 -4 20 -3
31 5 31 6 0 11 -3 12 -7z m197 -141 c-4 -65 -28 -69 -28 -4 0 27 3 65 7 83 l7
34 8 -33 c5 -19 8 -54 6 -80z m331 -119 c1 -29 3 -53 5 -53 20 0 66 25 69 38
4 19 27 -76 27 -113 0 -33 20 -74 39 -80 9 -3 39 -34 66 -69 36 -46 75 -81
138 -122 48 -31 85 -59 83 -62 -3 -2 -34 6 -70 18 -70 23 -159 78 -190 118
-12 15 -25 22 -38 19 -15 -4 -23 3 -34 29 -8 19 -21 37 -29 40 -7 3 -17 19
-20 35 -4 16 -11 31 -16 34 -10 7 -13 -32 -9 -104 3 -53 -16 -48 -23 6 -2 21
-12 79 -22 128 -16 88 -15 240 3 284 8 18 19 -65 21 -146z m590 67 c53 -10
200 -78 233 -107 28 -25 66 -95 73 -136 4 -22 2 -64 -6 -100 -16 -76 -60 -129
-139 -165 -73 -33 -135 -39 -199 -17 -61 20 -190 113 -244 176 -21 24 -50 57
-64 73 -30 32 -84 141 -76 150 12 12 24 5 35 -19 14 -31 28 -23 28 16 0 44 17
69 46 69 13 0 40 6 58 14 19 8 66 20 104 27 58 11 69 16 60 27 -9 11 -7 12 13
8 13 -3 48 -10 78 -16z m-1085 -9 c3 -4 3 -11 0 -14 -8 -8 -34 3 -34 14 0 11
27 12 34 0z m287 -137 c6 -81 44 -201 71 -227 21 -21 42 -67 33 -75 -8 -9 -43
28 -70 74 -47 80 -85 236 -70 284 13 40 30 14 36 -56z m-63 -129 c-3 -3 -9 2
-12 12 -6 14 -5 15 5 6 7 -7 10 -15 7 -18z m32 -56 c0 -5 -4 -9 -10 -9 -5 0
-10 7 -10 16 0 8 5 12 10 9 6 -3 10 -10 10 -16z m360 -128 c5 -42 4 -48 -9
-43 -9 3 -21 13 -28 21 -14 19 -17 55 -4 46 5 -3 13 4 16 16 10 29 18 16 25
-40z m-280 -31 c0 -23 160 -169 221 -201 55 -29 68 -42 94 -90 36 -67 142
-209 156 -209 6 0 7 -4 4 -10 -4 -6 -117 -10 -307 -10 l-301 0 8 43 c18 108
25 166 25 208 0 85 60 279 86 279 8 0 14 -4 14 -10z m542 -84 c21 -9 54 -16
75 -16 21 0 45 -5 53 -10 15 -10 -80 -16 -160 -11 -42 3 -108 38 -127 68 l-14
21 68 -18 c37 -10 85 -25 105 -34z m-89 -298 c66 -45 84 -55 160 -87 42 -19
77 -38 77 -42 0 -5 -37 -9 -82 -9 -92 1 -98 3 -159 80 -61 77 -59 101 4 58z
m1821 -603 c-5 -11 -2 -13 10 -9 9 3 13 11 9 18 -3 6 3 3 14 -7 18 -16 22 -16
33 -2 13 16 30 11 30 -8 0 -8 -3 -8 -9 1 -6 10 -10 10 -21 -3 -10 -12 -16 -13
-29 -4 -9 6 -4 0 12 -14 15 -14 27 -29 27 -32 0 -3 13 -23 28 -43 16 -20 46
-61 68 -90 21 -29 44 -50 51 -48 7 3 10 -1 7 -8 -4 -11 28 -60 56 -86 3 -3 13
-17 23 -32 10 -16 23 -27 29 -25 7 1 12 -5 13 -13 0 -8 10 -29 22 -45 l22 -30
1 228 c0 150 -3 227 -10 227 -6 0 -5 6 2 14 9 10 15 11 20 2 4 -6 8 -6 8 -1 0
6 4 5 8 -2 4 -6 6 -129 4 -272 l-3 -261 -22 12 c-12 7 -25 11 -30 10 -4 -1 -6
4 -5 10 2 7 -2 12 -9 11 -7 -2 -10 3 -7 11 3 8 -5 21 -18 30 -12 9 -18 16 -13
16 5 0 -1 10 -13 23 -13 12 -52 62 -88 110 -39 52 -69 85 -76 81 -7 -5 -8 -2
-3 6 5 8 2 17 -6 24 -8 6 -22 24 -32 39 -10 15 -22 25 -27 22 -6 -3 -7 0 -5 8
3 7 -3 21 -13 30 -17 15 -18 15 -19 -3 -1 -14 3 -17 15 -13 15 6 15 4 -1 -14
-16 -18 -17 -41 -17 -208 1 -144 -2 -190 -11 -196 -8 -4 -15 -6 -17 -4 -2 1
-3 113 -2 247 1 242 -3 284 -22 272 -6 -4 -5 3 1 15 13 24 23 28 15 6z m-2146
-13 c1 -1 2 -9 2 -17 0 -13 -22 -15 -140 -15 -105 0 -140 -3 -141 -12 0 -10
-2 -10 -6 0 -2 6 -9 12 -14 12 -10 0 -13 -169 -3 -194 5 -14 28 -16 144 -16
121 0 138 -2 136 -16 -2 -14 -23 -16 -142 -17 l-139 -2 -3 -103 c-2 -87 0
-103 14 -109 9 -3 20 0 25 8 6 10 9 10 9 2 0 -10 34 -13 135 -13 123 0 143 -4
133 -25 -2 -3 -87 -6 -190 -8 -118 -1 -184 1 -178 7 18 18 10 27 -11 16 -11
-7 -23 -9 -26 -6 -3 3 6 11 21 17 l26 12 0 233 c0 128 2 238 5 246 4 10 38 12
173 7 92 -3 168 -6 170 -7z m2000 -12 l2 -25 -160 3 -160 3 0 -106 0 -106 142
2 c120 1 142 -1 150 -15 6 -10 5 -16 -2 -16 -6 0 -9 -4 -6 -8 3 -5 -1 -9 -9
-9 -8 0 -12 4 -9 9 3 4 -56 8 -130 8 l-136 0 0 -110 0 -110 165 0 c150 0 165
-2 165 -17 0 -17 -16 -18 -189 -18 -128 0 -187 3 -181 10 5 6 9 118 10 248 0
192 -2 237 -12 231 -10 -6 -10 -5 -1 7 6 8 11 18 11 24 1 18 37 22 192 21
l156 -1 2 -25z m1068 1 c41 -11 94 -45 94 -61 0 -19 -29 -16 -54 5 -86 73
-265 39 -333 -64 -45 -69 -47 -185 -3 -255 54 -87 215 -142 276 -95 6 5 14 6
17 3 3 -3 21 6 40 20 29 22 36 24 46 12 10 -11 6 -18 -18 -35 -16 -12 -34 -21
-41 -21 -6 0 -9 -4 -6 -8 5 -9 -15 -12 -114 -14 -79 -1 -111 9 -178 59 -67 50
-106 176 -83 267 14 55 60 133 84 141 10 4 14 12 11 18 -4 7 -4 9 1 5 4 -4 21
0 37 8 41 21 149 43 168 33 8 -4 34 -12 56 -18z m-2568 -4 c3 -15 -11 -17
-158 -17 l-161 0 3 -112 3 -113 120 -2 c66 -1 132 -2 147 -3 20 0 26 -4 22
-15 -5 -12 -31 -15 -150 -15 l-144 0 0 -80 c0 -57 4 -80 13 -80 8 0 9 -2 1 -8
-7 -4 -11 -20 -10 -37 1 -30 -2 -31 -45 -26 -8 1 -8 5 -1 14 8 9 11 95 11 253
1 131 1 245 1 253 0 11 32 12 172 9 153 -4 173 -6 176 -21z m340 14 c112 -1
132 -3 132 -16 0 -12 -9 -15 -32 -14 -18 2 -91 2 -161 1 l-128 -2 3 -102 3
-103 138 -3 c113 -2 137 -5 137 -17 0 -13 -23 -15 -140 -15 l-141 0 3 -107 3
-108 159 -5 c115 -4 161 -8 164 -17 3 -10 -30 -13 -140 -14 -145 -1 -211 1
-216 6 -1 1 -4 118 -5 258 -2 281 -5 266 58 261 17 -2 90 -3 163 -3z m569 -17
c43 -16 93 -64 93 -90 0 -8 3 -14 8 -14 8 0 7 -98 -1 -106 -3 -3 -3 -13 0 -22
4 -10 2 -13 -5 -8 -7 4 -12 1 -12 -7 0 -7 -12 -25 -27 -39 -16 -14 -34 -34
-41 -44 -7 -10 -10 -14 -7 -7 3 6 1 14 -5 18 -15 9 -12 -21 3 -34 8 -6 17 -8
21 -4 4 4 4 1 1 -8 -3 -8 3 -24 14 -35 28 -30 72 -104 64 -105 -36 -6 -57 -2
-60 11 -4 13 -3 13 6 0 12 -17 14 -10 5 14 -3 9 -10 13 -15 10 -5 -3 -9 1 -9
8 0 8 -6 23 -14 33 -12 17 -16 18 -32 5 -18 -14 -18 -14 -1 7 18 20 18 21 -5
37 -12 9 -19 16 -14 16 5 0 3 6 -3 13 -7 10 -43 14 -115 16 l-105 2 -3 -88
c-2 -50 -7 -88 -13 -88 -6 0 -11 96 -13 262 l-2 262 37 3 c70 7 208 -3 250
-18z m1911 -242 c2 -257 2 -262 -18 -262 -20 0 -20 6 -20 258 0 142 3 262 7
266 24 23 28 -14 31 -262z m376 256 c-7 -11 38 -108 48 -102 4 3 5 -2 2 -10
-3 -9 -2 -16 4 -16 5 0 9 -6 9 -12 -2 -24 45 -118 56 -111 6 3 7 1 3 -6 -4 -7
4 -35 17 -64 32 -64 87 -187 87 -193 0 -2 -9 -4 -20 -4 -11 0 -20 7 -20 16 0
9 -5 12 -12 8 -6 -4 -8 -3 -4 4 3 6 -6 36 -21 66 l-27 56 -152 0 -151 0 -33
-75 c-24 -55 -38 -75 -51 -75 -24 0 -24 0 11 71 17 33 28 65 24 71 -4 7 -3 8
4 4 11 -7 16 7 15 41 -1 7 3 11 7 8 4 -3 17 17 28 43 11 26 31 70 43 97 13 28
24 52 24 55 0 3 8 19 18 36 9 17 13 34 10 38 -4 3 -2 6 4 6 6 0 16 13 21 30 9
23 16 29 36 28 13 -1 23 -6 20 -10z m544 -3 c29 -9 55 -15 58 -15 13 3 23 -25
13 -36 -8 -10 -18 -8 -42 6 -75 43 -174 34 -227 -20 -26 -27 -31 -38 -27 -67
9 -61 32 -76 192 -122 91 -26 128 -61 129 -125 2 -87 -66 -141 -179 -140 -102
1 -219 54 -187 86 9 9 16 8 29 -4 81 -71 255 -70 293 1 23 44 10 98 -30 128
-15 11 -162 55 -188 56 -7 0 -30 16 -52 34 -37 32 -40 38 -40 87 0 28 6 60 14
71 7 11 12 28 10 37 -1 10 2 20 6 23 5 3 7 -4 5 -16 -3 -17 -2 -19 10 -9 23
19 87 39 126 40 19 0 59 -7 87 -15z m-4821 -16 c23 -11 53 -34 65 -51 26 -37
35 -113 19 -161 -13 -38 -71 -97 -96 -97 -8 0 -15 -2 -15 -5 0 -3 29 -46 65
-95 47 -66 60 -90 47 -90 -10 0 -43 37 -79 88 l-63 87 -105 -3 -105 -3 0 -85
c0 -68 -3 -84 -15 -84 -13 0 -15 36 -15 260 l0 260 127 0 c108 0 133 -3 170
-21z m2200 -21 c-3 -7 -5 -2 -5 12 0 14 2 19 5 13 2 -7 2 -19 0 -25z m1258
-18 c-3 -5 -12 -10 -18 -10 -7 0 -6 4 3 10 19 12 23 12 15 0z m-1238 -132 c-2
-13 -4 -3 -4 22 0 25 2 35 4 23 2 -13 2 -33 0 -45z m818 -116 c-3 -3 -11 0
-18 7 -9 10 -8 11 6 5 10 -3 15 -9 12 -12z m-2824 -142 c5 0 9 -5 9 -11 0 -6
-5 -7 -12 -2 -21 13 -33 9 -40 -12 -6 -17 -7 -16 -5 5 1 14 8 24 15 23 8 -2
13 12 14 40 l1 42 4 -42 c2 -24 8 -43 14 -43z m1836 53 c1 -22 -1 -24 -8 -10
-6 9 -7 22 -4 27 9 14 10 13 12 -17z m24 -40 c-12 -20 -14 -14 -5 12 4 9 9 14
11 11 3 -2 0 -13 -6 -23z m936 3 c0 -8 -6 -12 -15 -9 -11 5 -11 7 0 14 7 5 13
9 14 9 0 0 1 -6 1 -14z m-2365 -70 c-6 -20 -6 -20 -10 -1 -2 11 -9 26 -16 34
-9 12 -8 12 10 1 15 -9 20 -19 16 -34z m68 20 c0 -3 -4 -8 -10 -11 -5 -3 -10
-1 -10 4 0 6 5 11 10 11 6 0 10 -2 10 -4z m-33 -38 c-3 -7 -5 -2 -5 12 0 14 2
19 5 13 2 -7 2 -19 0 -25z m2026 17 c-3 -9 -8 -14 -10 -11 -3 3 -2 9 2 15 9
16 15 13 8 -4z m-2600 -1655 c-2 -222 -15 -438 -25 -411 -13 36 -13 922 0 936
9 8 26 -358 25 -525z"/>
<path d="M3251 7224 c-14 -19 -38 -42 -55 -51 -35 -18 -22 -29 17 -14 32 12
84 78 71 91 -6 6 -19 -5 -33 -26z"/>
<path d="M2320 7086 c-71 -20 -105 -42 -176 -111 -36 -35 -73 -67 -83 -70 -21
-7 -82 -87 -119 -156 -32 -59 -47 -126 -32 -149 7 -11 14 -3 30 35 72 174 102
201 320 286 47 18 87 36 90 40 3 4 25 17 48 29 52 27 73 63 51 86 -22 21 -76
25 -129 10z"/>
<path d="M3350 6880 c0 -11 41 -31 152 -75 32 -13 78 -40 102 -60 24 -20 46
-32 49 -28 3 4 -3 28 -13 53 -12 31 -25 46 -42 51 -13 3 -35 12 -47 19 -29 15
-154 50 -181 50 -11 0 -20 -5 -20 -10z"/>
<path d="M2480 6840 c-62 -10 -110 -29 -140 -54 -35 -31 -98 -76 -105 -76 -3
0 -2 12 1 26 6 23 5 25 -12 15 -62 -36 -80 -73 -86 -179 -4 -70 -2 -84 12 -92
27 -14 128 42 197 111 34 33 74 64 89 68 38 10 54 38 32 55 -9 7 -20 24 -23
38 -5 21 -3 26 18 32 31 7 57 -2 57 -20 0 -24 18 -16 46 21 45 60 24 73 -86
55z m-110 -140 c-8 -5 -17 -7 -19 -4 -3 3 1 9 9 14 8 5 17 7 19 4 3 -3 -1 -9
-9 -14z"/>
<path d="M3303 6825 c-35 -15 -56 -66 -51 -124 2 -22 -4 -36 -21 -48 -38 -29
-61 -52 -61 -62 0 -14 29 -41 44 -41 21 0 142 93 160 122 20 34 20 91 0 134
-18 38 -25 39 -71 19z"/>
<path d="M3553 6688 c-5 -7 -13 -21 -16 -30 -3 -9 -21 -25 -39 -34 -18 -9 -50
-32 -71 -51 -21 -19 -49 -39 -61 -45 -33 -15 -49 -53 -34 -78 13 -20 28 -27
28 -12 0 5 29 23 65 41 36 18 74 44 85 58 l19 24 35 -31 c47 -43 54 -80 24
-122 -26 -36 -60 -108 -52 -108 15 0 64 43 64 56 0 8 4 14 9 14 5 0 14 12 19
28 6 15 11 21 11 15 1 -7 4 -13 9 -13 8 0 7 23 -4 178 -6 89 -7 92 -33 98 -14
4 -31 11 -37 16 -7 5 -15 3 -21 -4z"/>
<path d="M3068 6631 c-25 -16 -61 -51 -79 -78 -18 -26 -40 -53 -48 -60 -14
-11 -13 -12 5 -13 24 0 121 62 184 119 37 33 42 42 30 51 -24 16 -43 12 -92
-19z"/>
<path d="M2772 6250 c-36 -153 -38 -177 -16 -208 25 -36 39 -27 39 26 0 26 6
72 13 102 10 39 11 78 5 135 l-9 80 -32 -135z"/>
<path d="M3179 6323 c-30 -20 -76 -52 -104 -70 -72 -48 -195 -162 -195 -182 0
-9 5 -22 12 -29 13 -13 106 -16 123 -4 6 4 17 27 25 52 21 70 60 138 89 160
108 80 139 110 112 110 -5 0 -33 -17 -62 -37z"/>
<path d="M2670 2674 l0 -145 88 2 c58 1 95 6 111 16 13 8 20 10 17 4 -12 -18
16 -12 51 12 18 12 31 28 28 34 -2 7 1 12 7 10 6 -1 13 4 16 12 3 9 0 11 -9 7
-8 -4 -6 -1 4 7 26 21 20 106 -7 90 -8 -5 -8 -3 1 8 9 11 8 19 -5 36 -34 42
-74 53 -192 53 l-110 0 0 -146z m280 -78 c0 -3 -4 -8 -10 -11 -5 -3 -10 -1
-10 4 0 6 5 11 10 11 6 0 10 -2 10 -4z"/>
<path d="M5173 2780 c-7 -18 -10 -37 -6 -43 3 -6 2 -7 -4 -4 -6 4 -24 -24 -41
-63 -17 -39 -27 -72 -21 -75 5 -4 9 -12 9 -18 0 -7 -4 -6 -10 3 -10 15 -20 10
-24 -12 -1 -7 -8 -23 -14 -35 l-13 -23 136 0 c88 0 135 4 135 11 0 5 -5 7 -12
3 -6 -4 -8 -3 -4 4 3 6 -8 42 -25 81 -24 53 -35 68 -48 64 -12 -4 -13 -3 -3 5
11 7 8 21 -15 72 l-28 62 -12 -32z"/>
<path d="M680 2822 c-6 -2 -10 -61 -10 -149 l0 -145 113 4 c170 5 217 38 217
151 0 67 -31 111 -88 127 -36 9 -212 18 -232 12z"/>
<path d="M5260 5326 c0 -9 30 -14 35 -6 4 6 -3 10 -14 10 -12 0 -21 -2 -21 -4z"/>
<path d="M7831 4529 c-56 -40 -146 -79 -183 -79 -23 0 -93 -68 -123 -120 -11
-19 -32 -55 -47 -80 -33 -56 -33 -58 -4 -71 28 -13 25 -31 -12 -71 l-26 -28
30 0 c16 0 43 7 59 16 17 9 51 27 76 40 25 12 60 35 78 50 18 15 52 31 75 35
22 4 61 13 86 19 25 6 58 11 73 10 32 0 62 13 97 45 14 12 42 28 63 35 20 6
37 15 37 20 0 16 -118 27 -165 14 -12 -3 -25 -15 -31 -27 -5 -13 -16 -20 -24
-17 -34 10 -88 3 -116 -17 -34 -24 -90 -38 -98 -24 -3 5 12 24 34 41 22 17 40
40 40 51 0 25 -6 24 -50 -11 -21 -16 -44 -30 -51 -30 -8 0 -27 -14 -43 -30
-16 -17 -35 -30 -43 -30 -17 0 -17 26 0 40 31 26 114 81 137 91 14 5 41 25 60
43 19 18 56 45 82 60 51 29 65 44 52 55 -5 5 -33 -9 -63 -30z"/>
<path d="M7443 4032 c-34 -17 -53 -32 -53 -44 0 -24 12 -23 56 7 20 14 46 25
57 25 20 0 20 0 1 -21 -28 -32 -94 -71 -109 -65 -15 5 -28 -23 -49 -101 -7
-29 -9 -53 -4 -53 17 0 74 29 102 54 24 20 28 29 23 54 -5 26 -2 31 24 42 72
30 96 72 65 113 -18 24 -52 21 -113 -11z"/>
<path d="M7848 4013 c-32 -5 -42 -27 -21 -45 19 -15 200 -15 216 1 6 6 4 16
-7 27 -18 17 -129 28 -188 17z"/>
<path d="M7605 3857 c-50 -28 -57 -59 -19 -83 25 -17 28 -17 62 2 47 25 56 49
16 41 l-29 -5 33 27 c17 15 32 31 32 34 0 15 -57 5 -95 -16z"/>
<path d="M7775 3751 c-55 -8 -58 -36 -9 -90 41 -46 59 -52 50 -17 -10 42 2 56
50 56 31 0 52 -6 66 -20 12 -11 24 -17 27 -14 3 4 0 9 -6 11 -7 3 -13 17 -13
33 0 44 -55 58 -165 41z"/>
<path d="M7264 3155 c-16 -13 -17 -16 -4 -24 11 -8 17 -5 23 11 10 27 5 31
-19 13z"/>
<path d="M5530 1478 c-14 -7 -48 -26 -77 -45 -28 -18 -57 -33 -63 -33 -13 0
-73 -40 -78 -52 -2 -4 -10 -8 -17 -8 -7 0 -15 -3 -17 -7 -1 -5 -20 -23 -41
-40 -21 -18 -35 -33 -32 -33 3 0 41 18 85 40 44 22 110 51 147 65 37 14 85 34
108 44 22 10 51 23 64 28 l25 9 -22 22 c-24 24 -44 26 -82 10z"/>
<path d="M5680 1416 c0 -14 21 -26 46 -26 23 0 16 27 -8 34 -33 8 -38 8 -38
-8z"/>
<path d="M7252 1261 c-21 -26 -32 -50 -30 -64 3 -19 10 -22 60 -25 47 -2 61 1
78 18 11 11 20 29 20 39 0 28 -31 60 -65 67 -27 5 -35 0 -63 -35z"/>
<path d="M6334 1149 c-31 -35 -35 -55 -23 -107 12 -54 -5 -103 -53 -160 -31
-36 -37 -82 -14 -101 12 -10 17 -7 28 15 7 15 20 31 28 36 29 16 95 42 103 40
5 -2 6 1 3 6 -3 5 6 15 19 22 32 17 40 40 51 152 4 35 13 64 25 77 24 26 16
30 -73 37 -68 6 -74 5 -94 -17z"/>
<path d="M6180 661 c-32 -9 -35 -28 -16 -94 8 -29 12 -64 9 -77 -6 -25 -6 -25
15 -6 28 24 28 51 0 70 -21 15 -21 16 -3 35 9 11 26 23 36 26 12 4 19 16 19
31 0 25 -12 28 -60 15z"/>
<path d="M6121 433 c-6 -10 -11 -14 -11 -9 0 5 -8 2 -17 -7 -35 -31 -126 -59
-185 -57 -86 2 -87 2 -172 -8 -85 -10 -199 -1 -276 22 -83 26 -139 36 -192 36
-51 0 -252 -40 -293 -59 -11 -5 -48 -19 -82 -32 -35 -13 -63 -27 -63 -31 0 -5
-9 -8 -19 -8 -11 0 -22 -4 -26 -9 -3 -6 -19 -17 -35 -25 -17 -9 -45 -24 -62
-33 -18 -9 -39 -23 -46 -30 -7 -7 -24 -16 -38 -19 -13 -3 -24 -12 -24 -20 0
-8 -7 -14 -15 -14 -8 0 -15 -4 -15 -9 0 -11 -59 -33 -70 -26 -5 3 -11 1 -15
-5 -3 -5 -19 -10 -34 -10 -16 0 -34 -7 -41 -15 -8 -9 -30 -15 -58 -15 -25 0
-42 -3 -39 -7 4 -3 -1 -12 -11 -19 -14 -11 -1 -14 88 -15 135 -2 162 1 178 14
19 15 112 57 128 57 8 0 22 -16 31 -35 12 -25 23 -35 40 -35 14 0 23 6 23 15
0 37 156 155 206 155 8 0 25 5 37 12 12 6 39 13 59 14 29 2 39 -2 43 -17 9
-26 37 -24 64 5 21 23 65 42 85 37 4 -1 15 4 23 11 12 10 17 9 24 -5 8 -14 13
-15 30 -4 16 10 21 9 28 -1 4 -7 15 -10 23 -7 9 4 18 0 21 -8 4 -12 23 -15 81
-13 53 2 76 -1 76 -9 0 -17 -95 -112 -129 -129 -41 -22 -146 -37 -230 -34 -53
2 -75 -1 -78 -10 -4 -10 39 -12 216 -11 l220 2 46 44 c31 32 49 59 57 90 13
53 22 58 137 66 46 4 86 9 90 12 3 3 5 24 4 45 -2 38 0 40 28 40 26 0 29 -3
23 -24 -10 -40 2 -46 57 -26 87 32 109 54 100 104 -1 4 5 13 12 20 18 13 31
66 18 66 -6 0 -15 -8 -20 -17z m-481 -237 c0 -8 -4 -17 -9 -21 -12 -7 -24 12
-16 25 9 15 25 12 25 -4z"/>
</g>
</svg>
